<mxfile host="app.diagrams.net" agent="Mozilla/5.0 (Windows NT 10.0; Win64; x64) AppleWebKit/537.36 (KHTML, like Gecko) Chrome/141.0.0.0 Safari/537.36" version="28.2.7">
  <diagram id="C5RBs43oDa-KdzZeNtuy" name="Page-1">
    <mxGraphModel dx="1681" dy="527" grid="1" gridSize="10" guides="1" tooltips="1" connect="1" arrows="1" fold="1" page="0" pageScale="1" pageWidth="827" pageHeight="1169" math="0" shadow="0">
      <root>
        <mxCell id="WIyWlLk6GJQsqaUBKTNV-0" />
        <mxCell id="WIyWlLk6GJQsqaUBKTNV-1" parent="WIyWlLk6GJQsqaUBKTNV-0" />
        <mxCell id="zdcCQYKxIcxADEaQ49_8-1" value="Produto" style="swimlane;fontStyle=1;align=center;verticalAlign=top;childLayout=stackLayout;horizontal=1;startSize=26;horizontalStack=0;resizeParent=1;resizeParentMax=0;resizeLast=0;collapsible=1;marginBottom=0;whiteSpace=wrap;html=1;" parent="WIyWlLk6GJQsqaUBKTNV-1" vertex="1">
          <mxGeometry x="-40" y="120" width="330" height="190" as="geometry">
            <mxRectangle x="130" y="80" width="80" height="30" as="alternateBounds" />
          </mxGeometry>
        </mxCell>
        <mxCell id="zdcCQYKxIcxADEaQ49_8-2" value="- id: Long&lt;div&gt;- nome: String&lt;/div&gt;&lt;div&gt;- estoque: Integer&lt;/div&gt;&lt;div&gt;- precoVenda: Double&lt;/div&gt;&lt;div&gt;- precoCompra: Double&lt;/div&gt;" style="text;strokeColor=none;fillColor=none;align=left;verticalAlign=top;spacingLeft=4;spacingRight=4;overflow=hidden;rotatable=0;points=[[0,0.5],[1,0.5]];portConstraint=eastwest;whiteSpace=wrap;html=1;" parent="zdcCQYKxIcxADEaQ49_8-1" vertex="1">
          <mxGeometry y="26" width="330" height="84" as="geometry" />
        </mxCell>
        <mxCell id="zdcCQYKxIcxADEaQ49_8-3" value="" style="line;strokeWidth=1;fillColor=none;align=left;verticalAlign=middle;spacingTop=-1;spacingLeft=3;spacingRight=3;rotatable=0;labelPosition=right;points=[];portConstraint=eastwest;strokeColor=inherit;" parent="zdcCQYKxIcxADEaQ49_8-1" vertex="1">
          <mxGeometry y="110" width="330" height="12" as="geometry" />
        </mxCell>
        <mxCell id="zdcCQYKxIcxADEaQ49_8-4" value="+&amp;nbsp;atualizarEstoque(int quantidade): void&lt;div&gt;+ alterarPrecoVenda(Double novoPrecoVenda): void&lt;/div&gt;&lt;div&gt;+&amp;nbsp;alterarPrecoCompra(Double novoPrecoCompra): void&lt;/div&gt;" style="text;strokeColor=none;fillColor=none;align=left;verticalAlign=top;spacingLeft=4;spacingRight=4;overflow=hidden;rotatable=0;points=[[0,0.5],[1,0.5]];portConstraint=eastwest;whiteSpace=wrap;html=1;" parent="zdcCQYKxIcxADEaQ49_8-1" vertex="1">
          <mxGeometry y="122" width="330" height="68" as="geometry" />
        </mxCell>
        <mxCell id="9ofz6KI2d66l2ul8pVV8-4" value="Venda" style="swimlane;fontStyle=1;align=center;verticalAlign=top;childLayout=stackLayout;horizontal=1;startSize=26;horizontalStack=0;resizeParent=1;resizeParentMax=0;resizeLast=0;collapsible=1;marginBottom=0;whiteSpace=wrap;html=1;" parent="WIyWlLk6GJQsqaUBKTNV-1" vertex="1">
          <mxGeometry x="710" y="120" width="220" height="170" as="geometry" />
        </mxCell>
        <mxCell id="9ofz6KI2d66l2ul8pVV8-5" value="- id: Long&lt;div&gt;- valorTotal: Double&lt;/div&gt;&lt;div&gt;- dataVenda: LocalDate&lt;/div&gt;&lt;div&gt;-&amp;nbsp;frete: Double&lt;/div&gt;&lt;div&gt;-&amp;nbsp;desconto: Double&lt;/div&gt;" style="text;strokeColor=none;fillColor=none;align=left;verticalAlign=top;spacingLeft=4;spacingRight=4;overflow=hidden;rotatable=0;points=[[0,0.5],[1,0.5]];portConstraint=eastwest;whiteSpace=wrap;html=1;" parent="9ofz6KI2d66l2ul8pVV8-4" vertex="1">
          <mxGeometry y="26" width="220" height="84" as="geometry" />
        </mxCell>
        <mxCell id="9ofz6KI2d66l2ul8pVV8-6" value="" style="line;strokeWidth=1;fillColor=none;align=left;verticalAlign=middle;spacingTop=-1;spacingLeft=3;spacingRight=3;rotatable=0;labelPosition=right;points=[];portConstraint=eastwest;strokeColor=inherit;" parent="9ofz6KI2d66l2ul8pVV8-4" vertex="1">
          <mxGeometry y="110" width="220" height="8" as="geometry" />
        </mxCell>
        <mxCell id="9ofz6KI2d66l2ul8pVV8-7" value="+ finalizarVenda(): void&lt;div&gt;+ calcularValorTotal(): Double&lt;/div&gt;" style="text;strokeColor=none;fillColor=none;align=left;verticalAlign=top;spacingLeft=4;spacingRight=4;overflow=hidden;rotatable=0;points=[[0,0.5],[1,0.5]];portConstraint=eastwest;whiteSpace=wrap;html=1;" parent="9ofz6KI2d66l2ul8pVV8-4" vertex="1">
          <mxGeometry y="118" width="220" height="52" as="geometry" />
        </mxCell>
        <mxCell id="9ofz6KI2d66l2ul8pVV8-14" value="Empresa" style="swimlane;fontStyle=1;align=center;verticalAlign=top;childLayout=stackLayout;horizontal=1;startSize=26;horizontalStack=0;resizeParent=1;resizeParentMax=0;resizeLast=0;collapsible=1;marginBottom=0;whiteSpace=wrap;html=1;" parent="WIyWlLk6GJQsqaUBKTNV-1" vertex="1">
          <mxGeometry x="180" y="560" width="186" height="90" as="geometry" />
        </mxCell>
        <mxCell id="9ofz6KI2d66l2ul8pVV8-15" value="&lt;div&gt;&lt;span style=&quot;background-color: transparent; color: light-dark(rgb(0, 0, 0), rgb(255, 255, 255));&quot;&gt;- lucroTotal: Double&lt;/span&gt;&lt;/div&gt;" style="text;strokeColor=none;fillColor=none;align=left;verticalAlign=top;spacingLeft=4;spacingRight=4;overflow=hidden;rotatable=0;points=[[0,0.5],[1,0.5]];portConstraint=eastwest;whiteSpace=wrap;html=1;" parent="9ofz6KI2d66l2ul8pVV8-14" vertex="1">
          <mxGeometry y="26" width="186" height="24" as="geometry" />
        </mxCell>
        <mxCell id="9ofz6KI2d66l2ul8pVV8-16" value="" style="line;strokeWidth=1;fillColor=none;align=left;verticalAlign=middle;spacingTop=-1;spacingLeft=3;spacingRight=3;rotatable=0;labelPosition=right;points=[];portConstraint=eastwest;strokeColor=inherit;" parent="9ofz6KI2d66l2ul8pVV8-14" vertex="1">
          <mxGeometry y="50" width="186" height="8" as="geometry" />
        </mxCell>
        <mxCell id="9ofz6KI2d66l2ul8pVV8-17" value="+ calcularLucroTotal(): Double" style="text;strokeColor=none;fillColor=none;align=left;verticalAlign=top;spacingLeft=4;spacingRight=4;overflow=hidden;rotatable=0;points=[[0,0.5],[1,0.5]];portConstraint=eastwest;whiteSpace=wrap;html=1;" parent="9ofz6KI2d66l2ul8pVV8-14" vertex="1">
          <mxGeometry y="58" width="186" height="32" as="geometry" />
        </mxCell>
        <mxCell id="9ofz6KI2d66l2ul8pVV8-24" value="Cliente" style="swimlane;fontStyle=1;align=center;verticalAlign=top;childLayout=stackLayout;horizontal=1;startSize=26;horizontalStack=0;resizeParent=1;resizeParentMax=0;resizeLast=0;collapsible=1;marginBottom=0;whiteSpace=wrap;html=1;" parent="WIyWlLk6GJQsqaUBKTNV-1" vertex="1">
          <mxGeometry x="1050" y="385" width="236" height="198" as="geometry" />
        </mxCell>
        <mxCell id="9ofz6KI2d66l2ul8pVV8-25" value="&lt;div&gt;- id: Long&lt;div&gt;- nome: String&lt;/div&gt;&lt;div&gt;&lt;div&gt;- cnpj: String&lt;/div&gt;&lt;div&gt;- cpf: String&lt;/div&gt;&lt;/div&gt;&lt;/div&gt;- divida: Double&lt;div&gt;- telefone: String&lt;/div&gt;&lt;div&gt;- endereco: String&lt;/div&gt;" style="text;strokeColor=none;fillColor=none;align=left;verticalAlign=top;spacingLeft=4;spacingRight=4;overflow=hidden;rotatable=0;points=[[0,0.5],[1,0.5]];portConstraint=eastwest;whiteSpace=wrap;html=1;" parent="9ofz6KI2d66l2ul8pVV8-24" vertex="1">
          <mxGeometry y="26" width="236" height="114" as="geometry" />
        </mxCell>
        <mxCell id="9ofz6KI2d66l2ul8pVV8-26" value="" style="line;strokeWidth=1;fillColor=none;align=left;verticalAlign=middle;spacingTop=-1;spacingLeft=3;spacingRight=3;rotatable=0;labelPosition=right;points=[];portConstraint=eastwest;strokeColor=inherit;" parent="9ofz6KI2d66l2ul8pVV8-24" vertex="1">
          <mxGeometry y="140" width="236" height="8" as="geometry" />
        </mxCell>
        <mxCell id="9ofz6KI2d66l2ul8pVV8-27" value="+ calculoDivida(): Double&lt;div&gt;+ pagamendoDivida(Double valor): void&lt;/div&gt;" style="text;strokeColor=none;fillColor=none;align=left;verticalAlign=top;spacingLeft=4;spacingRight=4;overflow=hidden;rotatable=0;points=[[0,0.5],[1,0.5]];portConstraint=eastwest;whiteSpace=wrap;html=1;" parent="9ofz6KI2d66l2ul8pVV8-24" vertex="1">
          <mxGeometry y="148" width="236" height="50" as="geometry" />
        </mxCell>
        <mxCell id="9ofz6KI2d66l2ul8pVV8-29" value="&lt;span style=&quot;font-weight: 400;&quot;&gt;«interface»&lt;/span&gt;&lt;br style=&quot;font-weight: 400;&quot;&gt;&lt;b&gt;Usuário&lt;/b&gt;" style="swimlane;fontStyle=1;align=center;verticalAlign=top;childLayout=stackLayout;horizontal=1;startSize=40;horizontalStack=0;resizeParent=1;resizeParentMax=0;resizeLast=0;collapsible=1;marginBottom=0;whiteSpace=wrap;html=1;" parent="WIyWlLk6GJQsqaUBKTNV-1" vertex="1">
          <mxGeometry x="-10" y="770" width="160" height="150" as="geometry" />
        </mxCell>
        <mxCell id="9ofz6KI2d66l2ul8pVV8-31" value="" style="line;strokeWidth=1;fillColor=none;align=left;verticalAlign=middle;spacingTop=-1;spacingLeft=3;spacingRight=3;rotatable=0;labelPosition=right;points=[];portConstraint=eastwest;strokeColor=inherit;" parent="9ofz6KI2d66l2ul8pVV8-29" vertex="1">
          <mxGeometry y="40" width="160" height="8" as="geometry" />
        </mxCell>
        <mxCell id="9ofz6KI2d66l2ul8pVV8-30" value="- id: Long&lt;div&gt;- nome: String&lt;/div&gt;&lt;div&gt;&lt;div&gt;- cnpj: String&lt;/div&gt;&lt;div&gt;- cpf: String&lt;/div&gt;&lt;/div&gt;&lt;div&gt;- endereco: String&lt;/div&gt;&lt;div&gt;- telefone: Integer&lt;/div&gt;" style="text;strokeColor=none;fillColor=none;align=left;verticalAlign=top;spacingLeft=4;spacingRight=4;overflow=hidden;rotatable=0;points=[[0,0.5],[1,0.5]];portConstraint=eastwest;whiteSpace=wrap;html=1;" parent="9ofz6KI2d66l2ul8pVV8-29" vertex="1">
          <mxGeometry y="48" width="160" height="102" as="geometry" />
        </mxCell>
        <mxCell id="9ofz6KI2d66l2ul8pVV8-37" value="Categoria" style="swimlane;fontStyle=1;align=center;verticalAlign=top;childLayout=stackLayout;horizontal=1;startSize=26;horizontalStack=0;resizeParent=1;resizeParentMax=0;resizeLast=0;collapsible=1;marginBottom=0;whiteSpace=wrap;html=1;" parent="WIyWlLk6GJQsqaUBKTNV-1" vertex="1">
          <mxGeometry x="-220" y="470" width="160" height="98" as="geometry" />
        </mxCell>
        <mxCell id="9ofz6KI2d66l2ul8pVV8-38" value="&lt;div&gt;- id: Long&lt;/div&gt;&lt;div&gt;&lt;span style=&quot;background-color: transparent; color: light-dark(rgb(0, 0, 0), rgb(255, 255, 255));&quot;&gt;- nome: String&lt;/span&gt;&lt;/div&gt;&lt;div&gt;&lt;span style=&quot;background-color: transparent; color: light-dark(rgb(0, 0, 0), rgb(255, 255, 255));&quot;&gt;- descricao: String&lt;/span&gt;&lt;/div&gt;" style="text;strokeColor=none;fillColor=none;align=left;verticalAlign=top;spacingLeft=4;spacingRight=4;overflow=hidden;rotatable=0;points=[[0,0.5],[1,0.5]];portConstraint=eastwest;whiteSpace=wrap;html=1;" parent="9ofz6KI2d66l2ul8pVV8-37" vertex="1">
          <mxGeometry y="26" width="160" height="64" as="geometry" />
        </mxCell>
        <mxCell id="9ofz6KI2d66l2ul8pVV8-39" value="" style="line;strokeWidth=1;fillColor=none;align=left;verticalAlign=middle;spacingTop=-1;spacingLeft=3;spacingRight=3;rotatable=0;labelPosition=right;points=[];portConstraint=eastwest;strokeColor=inherit;" parent="9ofz6KI2d66l2ul8pVV8-37" vertex="1">
          <mxGeometry y="90" width="160" height="8" as="geometry" />
        </mxCell>
        <mxCell id="9ofz6KI2d66l2ul8pVV8-47" value="ItemPedido" style="swimlane;fontStyle=1;align=center;verticalAlign=top;childLayout=stackLayout;horizontal=1;startSize=26;horizontalStack=0;resizeParent=1;resizeParentMax=0;resizeLast=0;collapsible=1;marginBottom=0;whiteSpace=wrap;html=1;" parent="WIyWlLk6GJQsqaUBKTNV-1" vertex="1">
          <mxGeometry x="390" y="300" width="176" height="110" as="geometry" />
        </mxCell>
        <mxCell id="9ofz6KI2d66l2ul8pVV8-48" value="&lt;div&gt;- quantidade:&amp;nbsp;&lt;span style=&quot;background-color: transparent; color: light-dark(rgb(0, 0, 0), rgb(255, 255, 255));&quot;&gt;Integer&lt;/span&gt;&lt;span style=&quot;background-color: transparent; color: light-dark(rgb(0, 0, 0), rgb(255, 255, 255));&quot;&gt;&amp;nbsp;&lt;/span&gt;&lt;/div&gt;&lt;div&gt;- precoUnitario:&amp;nbsp;&lt;span style=&quot;background-color: transparent; color: light-dark(rgb(0, 0, 0), rgb(255, 255, 255));&quot;&gt;Double&lt;/span&gt;&lt;span style=&quot;background-color: transparent; color: light-dark(rgb(0, 0, 0), rgb(255, 255, 255));&quot;&gt;&amp;nbsp;&lt;/span&gt;&lt;/div&gt;" style="text;strokeColor=none;fillColor=none;align=left;verticalAlign=top;spacingLeft=4;spacingRight=4;overflow=hidden;rotatable=0;points=[[0,0.5],[1,0.5]];portConstraint=eastwest;whiteSpace=wrap;html=1;" parent="9ofz6KI2d66l2ul8pVV8-47" vertex="1">
          <mxGeometry y="26" width="176" height="44" as="geometry" />
        </mxCell>
        <mxCell id="9ofz6KI2d66l2ul8pVV8-49" value="" style="line;strokeWidth=1;fillColor=none;align=left;verticalAlign=middle;spacingTop=-1;spacingLeft=3;spacingRight=3;rotatable=0;labelPosition=right;points=[];portConstraint=eastwest;strokeColor=inherit;" parent="9ofz6KI2d66l2ul8pVV8-47" vertex="1">
          <mxGeometry y="70" width="176" height="8" as="geometry" />
        </mxCell>
        <mxCell id="9ofz6KI2d66l2ul8pVV8-50" value="+ calcularSubtotal(): Double" style="text;strokeColor=none;fillColor=none;align=left;verticalAlign=top;spacingLeft=4;spacingRight=4;overflow=hidden;rotatable=0;points=[[0,0.5],[1,0.5]];portConstraint=eastwest;whiteSpace=wrap;html=1;" parent="9ofz6KI2d66l2ul8pVV8-47" vertex="1">
          <mxGeometry y="78" width="176" height="32" as="geometry" />
        </mxCell>
        <mxCell id="mQt29KDBxnSPY1342iZp-9" value="" style="endArrow=none;html=1;rounded=0;exitX=0.25;exitY=0;exitDx=0;exitDy=0;entryX=0;entryY=0.5;entryDx=0;entryDy=0;" parent="WIyWlLk6GJQsqaUBKTNV-1" source="9ofz6KI2d66l2ul8pVV8-37" target="zdcCQYKxIcxADEaQ49_8-4" edge="1">
          <mxGeometry width="50" height="50" relative="1" as="geometry">
            <mxPoint x="200" y="380" as="sourcePoint" />
            <mxPoint x="250" y="330" as="targetPoint" />
            <Array as="points">
              <mxPoint x="-180" y="276" />
            </Array>
          </mxGeometry>
        </mxCell>
        <mxCell id="mQt29KDBxnSPY1342iZp-10" value="&lt;font style=&quot;font-size: 24px;&quot;&gt;1&lt;/font&gt;" style="text;html=1;whiteSpace=wrap;strokeColor=none;fillColor=none;align=center;verticalAlign=middle;rounded=0;" parent="WIyWlLk6GJQsqaUBKTNV-1" vertex="1">
          <mxGeometry x="-220" y="444" width="40" height="20" as="geometry" />
        </mxCell>
        <mxCell id="mQt29KDBxnSPY1342iZp-12" value="&lt;font style=&quot;font-size: 24px;&quot;&gt;*&lt;/font&gt;" style="text;html=1;whiteSpace=wrap;strokeColor=none;fillColor=none;align=center;verticalAlign=middle;rounded=0;" parent="WIyWlLk6GJQsqaUBKTNV-1" vertex="1">
          <mxGeometry x="-100" y="250" width="60" height="30" as="geometry" />
        </mxCell>
        <mxCell id="mQt29KDBxnSPY1342iZp-14" value="" style="endArrow=none;dashed=1;html=1;rounded=0;exitX=0.5;exitY=0;exitDx=0;exitDy=0;" parent="WIyWlLk6GJQsqaUBKTNV-1" source="9ofz6KI2d66l2ul8pVV8-47" edge="1">
          <mxGeometry width="50" height="50" relative="1" as="geometry">
            <mxPoint x="389" y="280" as="sourcePoint" />
            <mxPoint x="478" y="190" as="targetPoint" />
          </mxGeometry>
        </mxCell>
        <mxCell id="mQt29KDBxnSPY1342iZp-15" value="&lt;font style=&quot;font-size: 24px;&quot;&gt;1&lt;/font&gt;" style="text;html=1;whiteSpace=wrap;strokeColor=none;fillColor=none;align=center;verticalAlign=middle;rounded=0;" parent="WIyWlLk6GJQsqaUBKTNV-1" vertex="1">
          <mxGeometry x="300" y="160" width="40" height="20" as="geometry" />
        </mxCell>
        <mxCell id="mQt29KDBxnSPY1342iZp-16" value="&lt;font style=&quot;font-size: 24px;&quot;&gt;*&lt;/font&gt;" style="text;html=1;whiteSpace=wrap;strokeColor=none;fillColor=none;align=center;verticalAlign=middle;rounded=0;" parent="WIyWlLk6GJQsqaUBKTNV-1" vertex="1">
          <mxGeometry x="650" y="155" width="60" height="30" as="geometry" />
        </mxCell>
        <mxCell id="mQt29KDBxnSPY1342iZp-17" value="&lt;font style=&quot;font-size: 24px;&quot;&gt;- Itens&lt;/font&gt;" style="text;html=1;whiteSpace=wrap;strokeColor=none;fillColor=none;align=center;verticalAlign=middle;rounded=0;" parent="WIyWlLk6GJQsqaUBKTNV-1" vertex="1">
          <mxGeometry x="290" y="200" width="90" height="30" as="geometry" />
        </mxCell>
        <mxCell id="mQt29KDBxnSPY1342iZp-19" value="&lt;font style=&quot;font-size: 24px;&quot;&gt;- pedidos&lt;/font&gt;" style="text;html=1;whiteSpace=wrap;strokeColor=none;fillColor=none;align=center;verticalAlign=middle;rounded=0;" parent="WIyWlLk6GJQsqaUBKTNV-1" vertex="1">
          <mxGeometry x="590" y="200" width="120" height="30" as="geometry" />
        </mxCell>
        <mxCell id="mQt29KDBxnSPY1342iZp-21" value="" style="endArrow=none;html=1;rounded=0;exitX=1;exitY=0.5;exitDx=0;exitDy=0;entryX=0;entryY=0.5;entryDx=0;entryDy=0;fillColor=light-dark(transparent,#FFFFFF);" parent="WIyWlLk6GJQsqaUBKTNV-1" source="zdcCQYKxIcxADEaQ49_8-2" target="9ofz6KI2d66l2ul8pVV8-5" edge="1">
          <mxGeometry width="50" height="50" relative="1" as="geometry">
            <mxPoint x="380" y="450" as="sourcePoint" />
            <mxPoint x="430" y="400" as="targetPoint" />
          </mxGeometry>
        </mxCell>
        <mxCell id="mQt29KDBxnSPY1342iZp-25" value="Extends" style="endArrow=block;endSize=16;endFill=0;html=1;rounded=0;entryX=0;entryY=0.5;entryDx=0;entryDy=0;exitX=0.5;exitY=0;exitDx=0;exitDy=0;" parent="WIyWlLk6GJQsqaUBKTNV-1" source="9ofz6KI2d66l2ul8pVV8-29" target="9ofz6KI2d66l2ul8pVV8-15" edge="1">
          <mxGeometry width="160" relative="1" as="geometry">
            <mxPoint x="320" y="570" as="sourcePoint" />
            <mxPoint x="480" y="570" as="targetPoint" />
            <Array as="points">
              <mxPoint x="70" y="598" />
            </Array>
          </mxGeometry>
        </mxCell>
        <mxCell id="mQt29KDBxnSPY1342iZp-26" value="&lt;font style=&quot;font-size: 24px;&quot;&gt;1&lt;/font&gt;" style="text;html=1;whiteSpace=wrap;strokeColor=none;fillColor=none;align=center;verticalAlign=middle;rounded=0;" parent="WIyWlLk6GJQsqaUBKTNV-1" vertex="1">
          <mxGeometry x="230" y="529" width="40" height="20" as="geometry" />
        </mxCell>
        <mxCell id="mQt29KDBxnSPY1342iZp-27" value="" style="endArrow=none;html=1;rounded=0;exitX=0.25;exitY=0;exitDx=0;exitDy=0;entryX=0.577;entryY=0.985;entryDx=0;entryDy=0;fillColor=light-dark(transparent,#FFFFFF);entryPerimeter=0;" parent="WIyWlLk6GJQsqaUBKTNV-1" source="9ofz6KI2d66l2ul8pVV8-14" target="zdcCQYKxIcxADEaQ49_8-4" edge="1">
          <mxGeometry width="50" height="50" relative="1" as="geometry">
            <mxPoint x="264.34" y="566.4" as="sourcePoint" />
            <mxPoint x="149.99999999999986" y="320.004" as="targetPoint" />
            <Array as="points">
              <mxPoint x="227" y="480" />
              <mxPoint x="150" y="480" />
            </Array>
          </mxGeometry>
        </mxCell>
        <mxCell id="mQt29KDBxnSPY1342iZp-28" value="&lt;font style=&quot;font-size: 24px;&quot;&gt;*&lt;/font&gt;" style="text;html=1;whiteSpace=wrap;strokeColor=none;fillColor=none;align=center;verticalAlign=middle;rounded=0;" parent="WIyWlLk6GJQsqaUBKTNV-1" vertex="1">
          <mxGeometry x="95" y="320" width="60" height="30" as="geometry" />
        </mxCell>
        <mxCell id="mQt29KDBxnSPY1342iZp-29" value="" style="endArrow=none;html=1;rounded=0;exitX=0.75;exitY=0;exitDx=0;exitDy=0;entryX=0.475;entryY=1.014;entryDx=0;entryDy=0;fillColor=light-dark(transparent,#FFFFFF);entryPerimeter=0;" parent="WIyWlLk6GJQsqaUBKTNV-1" source="9ofz6KI2d66l2ul8pVV8-14" target="9ofz6KI2d66l2ul8pVV8-7" edge="1">
          <mxGeometry width="50" height="50" relative="1" as="geometry">
            <mxPoint x="783" y="721" as="sourcePoint" />
            <mxPoint x="660" y="470" as="targetPoint" />
            <Array as="points">
              <mxPoint x="320" y="480" />
              <mxPoint x="810" y="480" />
            </Array>
          </mxGeometry>
        </mxCell>
        <mxCell id="mQt29KDBxnSPY1342iZp-30" value="&lt;font style=&quot;font-size: 24px;&quot;&gt;1&lt;/font&gt;" style="text;html=1;whiteSpace=wrap;strokeColor=none;fillColor=none;align=center;verticalAlign=middle;rounded=0;" parent="WIyWlLk6GJQsqaUBKTNV-1" vertex="1">
          <mxGeometry x="280" y="530" width="40" height="20" as="geometry" />
        </mxCell>
        <mxCell id="mQt29KDBxnSPY1342iZp-31" value="&lt;font style=&quot;font-size: 24px;&quot;&gt;*&lt;/font&gt;" style="text;html=1;whiteSpace=wrap;strokeColor=none;fillColor=none;align=center;verticalAlign=middle;rounded=0;" parent="WIyWlLk6GJQsqaUBKTNV-1" vertex="1">
          <mxGeometry x="750" y="300" width="60" height="30" as="geometry" />
        </mxCell>
        <mxCell id="mQt29KDBxnSPY1342iZp-32" value="" style="endArrow=none;html=1;rounded=0;exitX=1;exitY=0.5;exitDx=0;exitDy=0;entryX=0;entryY=0.5;entryDx=0;entryDy=0;fillColor=light-dark(transparent,#FFFFFF);" parent="WIyWlLk6GJQsqaUBKTNV-1" source="9ofz6KI2d66l2ul8pVV8-17" target="9ofz6KI2d66l2ul8pVV8-27" edge="1">
          <mxGeometry width="50" height="50" relative="1" as="geometry">
            <mxPoint x="520" y="680" as="sourcePoint" />
            <mxPoint x="940" y="680" as="targetPoint" />
            <Array as="points">
              <mxPoint x="840" y="634" />
              <mxPoint x="840" y="560" />
            </Array>
          </mxGeometry>
        </mxCell>
        <mxCell id="mQt29KDBxnSPY1342iZp-33" value="" style="endArrow=none;html=1;rounded=0;exitX=1;exitY=0.5;exitDx=0;exitDy=0;entryX=0.5;entryY=0;entryDx=0;entryDy=0;fillColor=light-dark(transparent,#FFFFFF);" parent="WIyWlLk6GJQsqaUBKTNV-1" source="9ofz6KI2d66l2ul8pVV8-5" target="9ofz6KI2d66l2ul8pVV8-24" edge="1">
          <mxGeometry width="50" height="50" relative="1" as="geometry">
            <mxPoint x="1080" y="210" as="sourcePoint" />
            <mxPoint x="1500" y="210" as="targetPoint" />
            <Array as="points">
              <mxPoint x="1168" y="188" />
            </Array>
          </mxGeometry>
        </mxCell>
        <mxCell id="mQt29KDBxnSPY1342iZp-34" value="&lt;font style=&quot;font-size: 24px;&quot;&gt;1&lt;/font&gt;" style="text;html=1;whiteSpace=wrap;strokeColor=none;fillColor=none;align=center;verticalAlign=middle;rounded=0;" parent="WIyWlLk6GJQsqaUBKTNV-1" vertex="1">
          <mxGeometry x="1170" y="360" width="40" height="20" as="geometry" />
        </mxCell>
        <mxCell id="mQt29KDBxnSPY1342iZp-35" value="&lt;font style=&quot;font-size: 24px;&quot;&gt;*&lt;/font&gt;" style="text;html=1;whiteSpace=wrap;strokeColor=none;fillColor=none;align=center;verticalAlign=middle;rounded=0;" parent="WIyWlLk6GJQsqaUBKTNV-1" vertex="1">
          <mxGeometry x="930" y="155" width="60" height="30" as="geometry" />
        </mxCell>
        <mxCell id="mQt29KDBxnSPY1342iZp-36" value="&lt;font style=&quot;font-size: 24px;&quot;&gt;1&lt;/font&gt;" style="text;html=1;whiteSpace=wrap;strokeColor=none;fillColor=none;align=center;verticalAlign=middle;rounded=0;" parent="WIyWlLk6GJQsqaUBKTNV-1" vertex="1">
          <mxGeometry x="370" y="610" width="40" height="20" as="geometry" />
        </mxCell>
        <mxCell id="mQt29KDBxnSPY1342iZp-37" value="&lt;font style=&quot;font-size: 24px;&quot;&gt;*&lt;/font&gt;" style="text;html=1;whiteSpace=wrap;strokeColor=none;fillColor=none;align=center;verticalAlign=middle;rounded=0;" parent="WIyWlLk6GJQsqaUBKTNV-1" vertex="1">
          <mxGeometry x="1000" y="530" width="40" height="20" as="geometry" />
        </mxCell>
        <mxCell id="mQt29KDBxnSPY1342iZp-38" value="&lt;font style=&quot;font-size: 24px;&quot;&gt;- produtos&lt;/font&gt;" style="text;html=1;whiteSpace=wrap;strokeColor=none;fillColor=none;align=center;verticalAlign=middle;rounded=0;" parent="WIyWlLk6GJQsqaUBKTNV-1" vertex="1">
          <mxGeometry x="-170" y="434" width="120" height="30" as="geometry" />
        </mxCell>
        <mxCell id="mQt29KDBxnSPY1342iZp-41" value="&lt;font style=&quot;font-size: 24px;&quot;&gt;- vendas&lt;/font&gt;" style="text;html=1;whiteSpace=wrap;strokeColor=none;fillColor=none;align=center;verticalAlign=middle;rounded=0;" parent="WIyWlLk6GJQsqaUBKTNV-1" vertex="1">
          <mxGeometry x="1060" y="355" width="100" height="30" as="geometry" />
        </mxCell>
        <mxCell id="mQt29KDBxnSPY1342iZp-42" value="&lt;font style=&quot;font-size: 24px;&quot;&gt;- produtos&lt;/font&gt;" style="text;html=1;whiteSpace=wrap;strokeColor=none;fillColor=none;align=center;verticalAlign=middle;rounded=0;" parent="WIyWlLk6GJQsqaUBKTNV-1" vertex="1">
          <mxGeometry x="100" y="524" width="120" height="30" as="geometry" />
        </mxCell>
        <mxCell id="mQt29KDBxnSPY1342iZp-44" value="&lt;font style=&quot;font-size: 24px;&quot;&gt;- vendas&lt;/font&gt;" style="text;html=1;whiteSpace=wrap;strokeColor=none;fillColor=none;align=center;verticalAlign=middle;rounded=0;" parent="WIyWlLk6GJQsqaUBKTNV-1" vertex="1">
          <mxGeometry x="330" y="524" width="100" height="30" as="geometry" />
        </mxCell>
        <mxCell id="mQt29KDBxnSPY1342iZp-47" value="&lt;font style=&quot;font-size: 24px;&quot;&gt;- clientes&lt;/font&gt;" style="text;html=1;whiteSpace=wrap;strokeColor=none;fillColor=none;align=center;verticalAlign=middle;rounded=0;" parent="WIyWlLk6GJQsqaUBKTNV-1" vertex="1">
          <mxGeometry x="366" y="640" width="130" height="30" as="geometry" />
        </mxCell>
      </root>
    </mxGraphModel>
  </diagram>
</mxfile>
